<?xml version="1.0" encoding="utf-8"?>
<!-- Generator: Adobe Illustrator 21.0.0, SVG Export Plug-In . SVG Version: 6.00 Build 0)  -->
<svg version="1.1" id="Layer_1" xmlns="http://www.w3.org/2000/svg" xmlns:xlink="http://www.w3.org/1999/xlink" x="0px" y="0px"
	 viewBox="0 0 24 24" style="enable-background:new 0 0 24 24;" xml:space="preserve">
<style type="text/css">
	.st0{fill:#FCFCFC;}
</style>
<path class="st0" d="M14.6,15.8c0.1,0.1,0.1,0.3,0,0.3C14,16.7,13.2,17,12,17l0,0l0,0c-1.2,0-2-0.3-2.5-0.8c-0.1-0.1-0.1-0.3,0-0.3
	c0.1-0.1,0.3-0.1,0.4,0c0.4,0.4,1.2,0.6,2.2,0.6l0,0l0,0c1,0,1.8-0.2,2.2-0.6C14.3,15.7,14.5,15.7,14.6,15.8z M14.4,12
	c-0.6,0-1.1,0.5-1.1,1.1s0.5,1,1.1,1s1.1-0.5,1.1-1C15.5,12.5,15,12,14.4,12z M10.6,13.1c0-0.6-0.5-1.1-1.1-1.1s-1.1,0.5-1.1,1.1
	s0.5,1,1.1,1C10.2,14.1,10.6,13.6,10.6,13.1z M24,5v14c0,2.8-2.2,5-5,5H5c-2.8,0-5-2.2-5-5V5c0-2.8,2.2-5,5-5h14C21.8,0,24,2.2,24,5
	z M20,11.9c0-1-0.8-1.8-1.8-1.8c-0.5,0-0.9,0.2-1.2,0.5c-1.2-0.8-2.8-1.3-4.6-1.4l1-3.1L16,6.7l0,0c0,0.8,0.6,1.4,1.4,1.4
	c0.8,0,1.4-0.6,1.4-1.4s-0.6-1.4-1.4-1.4c-0.6,0-1.1,0.4-1.3,0.9l-2.9-0.7c-0.1,0-0.3,0-0.3,0.2l-1.1,3.5c-1.9,0-3.6,0.5-4.9,1.4
	c-0.3-0.3-0.7-0.5-1.2-0.5c-1,0-1.8,0.8-1.8,1.8c0,0.6,0.4,1.2,0.9,1.5c0,0.2-0.1,0.4-0.1,0.6c0,2.6,3.2,4.7,7.1,4.7
	c3.9,0,7.1-2.1,7.1-4.7c0-0.2,0-0.4,0-0.5C19.6,13.1,20,12.5,20,11.9z"/>
</svg>
